<?xml version="1.0" encoding="UTF-8" standalone="no"?>
<!-- Generator: Adobe Illustrator 17.0.1, SVG Export Plug-In . SVG Version: 6.00 Build 0)  -->

<svg
   xmlns:dc="http://purl.org/dc/elements/1.1/"
   xmlns:cc="http://creativecommons.org/ns#"
   xmlns:rdf="http://www.w3.org/1999/02/22-rdf-syntax-ns#"
   xmlns:svg="http://www.w3.org/2000/svg"
   xmlns="http://www.w3.org/2000/svg"
   xmlns:xlink="http://www.w3.org/1999/xlink"
   xmlns:sodipodi="http://sodipodi.sourceforge.net/DTD/sodipodi-0.dtd"
   xmlns:inkscape="http://www.inkscape.org/namespaces/inkscape"
   version="1.1"
   x="0px"
   y="0px"
   width="86px"
   height="86px"
   viewBox="0 0 86 86"
   enable-background="new 0 0 86 86"
   xml:space="preserve"
   id="svg2"
   inkscape:version="0.48.4 r9939"
   sodipodi:docname="kaktus.svg"
   inkscape:export-filename="/home/mkiol/dev/Qt/kaktus/harbour-kaktus.png"
   inkscape:export-xdpi="90"
   inkscape:export-ydpi="90"><metadata
     id="metadata122"><rdf:RDF><cc:Work
         rdf:about=""><dc:format>image/svg+xml</dc:format><dc:type
           rdf:resource="http://purl.org/dc/dcmitype/StillImage" /><dc:title></dc:title></cc:Work></rdf:RDF></metadata><defs
     id="defs120"><linearGradient
       gradientTransform="translate(655,135)"
       y2="-134.7"
       x2="-612"
       y1="-49.3"
       x1="-612"
       gradientUnits="userSpaceOnUse"
       id="SVGID_1_"><stop
         id="stop7"
         style="stop-color:#008075"
         offset="0" /><stop
         id="stop9"
         style="stop-color:#00BFAF"
         offset="1" /></linearGradient><linearGradient
       inkscape:collect="always"
       xlink:href="#linearGradient3013"
       id="linearGradient3175"
       gradientUnits="userSpaceOnUse"
       gradientTransform="translate(655,135)"
       x1="-612"
       y1="-49.299999"
       x2="-612"
       y2="-134.7" /><linearGradient
       id="linearGradient3024"
       x1="206"
       gradientUnits="userSpaceOnUse"
       y1="1182.1"
       gradientTransform="matrix(0.90342,0,0,0.90342,10.209,196.04)"
       x2="482"
       y2="930.09003"><stop
         id="stop3157"
         stop-color="#590000"
         offset="0" /><stop
         id="stop3159"
         stop-color="#bf0000"
         offset="1" /></linearGradient><linearGradient
       id="linearGradient3949"
       y2="752.09003"
       gradientUnits="userSpaceOnUse"
       x2="252.60001"
       y1="752.09003"
       x1="708.59998"><stop
         id="stop3945"
         stop-color="#590000"
         offset="0" /><stop
         id="stop3947"
         stop-color="#bf0000"
         offset="1" /></linearGradient><linearGradient
       id="linearGradient3955"><stop
         id="stop3957"
         stop-color="#2e3436"
         offset="0" /><stop
         id="stop3959"
         stop-color="#2e3436"
         stop-opacity="0"
         offset="1" /></linearGradient><linearGradient
       id="linearGradient3224"><stop
         id="stop3226"
         stop-color="#2e3436"
         offset="0" /><stop
         id="stop3228"
         stop-color="#2e3436"
         stop-opacity="0"
         offset="1" /></linearGradient><linearGradient
       id="linearGradient3013"
       x1="509.82001"
       gradientUnits="userSpaceOnUse"
       y1="745.89001"
       gradientTransform="matrix(0.90342,0,0,0.90342,10.209,196.04)"
       x2="314.66"
       y2="745.89001"><stop
         id="stop3988"
         stop-color="#803f00"
         offset="0"
         style="stop-color:#e74e00;stop-opacity:1;" /><stop
         id="stop3990"
         stop-color="#bf5e00"
         offset="1"
         style="stop-color:#ffff00;stop-opacity:1;" /></linearGradient><linearGradient
       id="linearGradient3063"
       x1="226.32001"
       gradientUnits="userSpaceOnUse"
       y1="874.35999"
       gradientTransform="translate(4.8265e-7,0.61612)"
       x2="496.38"
       y2="86.362"><stop
         id="stop4459"
         stop-color="#105a2d"
         offset="0" /><stop
         id="stop4524"
         stop-color="#006e29"
         offset=".40192" /><stop
         id="stop4461"
         stop-color="#77b753"
         offset="1" /></linearGradient><linearGradient
       id="linearGradient4471"
       y2="338.35999"
       gradientUnits="userSpaceOnUse"
       y1="908.35999"
       x2="254.03999"
       x1="254.03999"><stop
         id="stop4467"
         stop-color="#00484d"
         offset="0" /><stop
         id="stop4469"
         stop-color="#00892c"
         offset="1" /></linearGradient><linearGradient
       id="linearGradient3882"
       x1="313.29001"
       gradientUnits="userSpaceOnUse"
       y1="759.62"
       gradientTransform="translate(4,-8)"
       x2="267.66"
       y2="759.62"><stop
         id="stop3856"
         stop-color="#65ac4d"
         offset="0" /><stop
         id="stop3858"
         stop-color="#0c5f2c"
         offset="1" /></linearGradient><filter
       id="filter3870"
       width="1.9438"
       y="-0.16917001"
       x="-0.47191"
       height="1.3383"
       color-interpolation-filters="sRGB"><feGaussianBlur
         id="feGaussianBlur3872"
         stdDeviation="17.943073" /></filter><linearGradient
       id="linearGradient4495"
       y2="916.35999"
       gradientUnits="userSpaceOnUse"
       y1="364.35999"
       x2="462.25"
       x1="460"><stop
         id="stop4491"
         stop-color="#028a2c"
         offset="0" /><stop
         id="stop4493"
         stop-color="#00484d"
         offset="1" /></linearGradient><linearGradient
       id="linearGradient4479"
       y2="967.65997"
       gradientUnits="userSpaceOnUse"
       y1="330.35999"
       x2="284.44"
       x1="282"><stop
         id="stop4475"
         stop-color="#00892c"
         offset="0" /><stop
         id="stop4477"
         stop-color="#00484d"
         offset="1" /></linearGradient><linearGradient
       id="linearGradient4487"
       y2="1024.4"
       gradientUnits="userSpaceOnUse"
       y1="240.36"
       x2="356.64001"
       x1="384"><stop
         id="stop4483"
         stop-color="#37a42c"
         offset="0" /><stop
         id="stop4485"
         stop-color="#00484d"
         offset="1" /></linearGradient><linearGradient
       inkscape:collect="always"
       xlink:href="#linearGradient3913"
       id="linearGradient3079"
       gradientUnits="userSpaceOnUse"
       gradientTransform="translate(89793.038,13481.654)"
       spreadMethod="reflect"
       x1="-59.926998"
       y1="596.20001"
       x2="-215.72"
       y2="177.31" /><linearGradient
       id="linearGradient3913"
       x1="-59.926998"
       spreadMethod="reflect"
       gradientUnits="userSpaceOnUse"
       y1="596.20001"
       gradientTransform="translate(378,8)"
       x2="-215.72"
       y2="177.31"><stop
         id="stop3909"
         offset="0" /><stop
         id="stop3911"
         stop-color="#555753"
         offset="1" /></linearGradient><filter
       id="filter3943"
       width="1.6373"
       y="-0.065512002"
       x="-0.31863999"
       height="1.131"
       color-interpolation-filters="sRGB"><feGaussianBlur
         id="feGaussianBlur3945"
         stdDeviation="20.684761" /></filter><linearGradient
       y2="177.31"
       x2="-215.72"
       y1="596.20001"
       x1="-59.926998"
       spreadMethod="reflect"
       gradientTransform="translate(89793.038,13481.654)"
       gradientUnits="userSpaceOnUse"
       id="linearGradient3315"
       xlink:href="#linearGradient3913"
       inkscape:collect="always" /><linearGradient
       inkscape:collect="always"
       xlink:href="#linearGradient4487"
       id="linearGradient4191"
       gradientUnits="userSpaceOnUse"
       gradientTransform="matrix(0.09610077,0,0,0.08194455,10.651325,7.3610661)"
       x1="384"
       y1="240.36"
       x2="356.64001"
       y2="1024.4" /><linearGradient
       inkscape:collect="always"
       xlink:href="#linearGradient4479"
       id="linearGradient4194"
       gradientUnits="userSpaceOnUse"
       gradientTransform="matrix(0.09610077,0,0,0.08194455,10.651325,7.3610661)"
       x1="282"
       y1="330.35999"
       x2="284.44"
       y2="967.65997" /><linearGradient
       inkscape:collect="always"
       xlink:href="#linearGradient4495"
       id="linearGradient4197"
       gradientUnits="userSpaceOnUse"
       gradientTransform="matrix(0.09610077,0,0,0.08194455,10.651325,7.3610661)"
       x1="460"
       y1="364.35999"
       x2="462.25"
       y2="916.35999" /><linearGradient
       inkscape:collect="always"
       xlink:href="#linearGradient4471"
       id="linearGradient4201"
       gradientUnits="userSpaceOnUse"
       gradientTransform="matrix(0.09610077,0,0,0.08194455,10.651325,7.3610661)"
       x1="254.03999"
       y1="908.35999"
       x2="254.03999"
       y2="338.35999" /><linearGradient
       inkscape:collect="always"
       xlink:href="#linearGradient3063"
       id="linearGradient4204"
       gradientUnits="userSpaceOnUse"
       gradientTransform="matrix(0.09610077,0,0,0.08194455,10.651325,7.4115441)"
       x1="226.32001"
       y1="874.35999"
       x2="496.38"
       y2="86.362" /><linearGradient
       inkscape:collect="always"
       xlink:href="#linearGradient3013"
       id="linearGradient4207"
       gradientUnits="userSpaceOnUse"
       gradientTransform="matrix(0.08681936,0,0,0.07403034,11.632418,23.425476)"
       x1="509.82001"
       y1="745.89001"
       x2="314.66"
       y2="745.89001" /><linearGradient
       inkscape:collect="always"
       xlink:href="#linearGradient3955"
       id="linearGradient4210"
       gradientUnits="userSpaceOnUse"
       gradientTransform="matrix(0.13192714,-0.00311463,0.00311463,0.13192714,-4.6556053,-61.539925)"
       x1="214"
       y1="1122.1"
       x2="224"
       y2="1181.3" /><linearGradient
       inkscape:collect="always"
       xlink:href="#linearGradient3955"
       id="linearGradient4213"
       gradientUnits="userSpaceOnUse"
       gradientTransform="matrix(0.08681936,0,0,0.08681936,11.632418,13.583969)"
       x1="214"
       y1="1122.1"
       x2="224"
       y2="1181.3" /><linearGradient
       inkscape:collect="always"
       xlink:href="#linearGradient3949"
       id="linearGradient4216"
       gradientUnits="userSpaceOnUse"
       gradientTransform="matrix(0.05749901,0,0,0.04902905,17.597873,40.41422)"
       x1="708.59998"
       y1="752.09003"
       x2="252.60001"
       y2="752.09003" /><linearGradient
       inkscape:collect="always"
       xlink:href="#linearGradient3024"
       id="linearGradient4220"
       gradientUnits="userSpaceOnUse"
       gradientTransform="matrix(0.08681936,0,0,0.08681936,11.632418,13.583969)"
       x1="206"
       y1="1182.1"
       x2="482"
       y2="930.09003" /></defs><sodipodi:namedview
     pagecolor="#ffffff"
     bordercolor="#666666"
     borderopacity="1"
     objecttolerance="10"
     gridtolerance="10"
     guidetolerance="10"
     inkscape:pageopacity="0"
     inkscape:pageshadow="2"
     inkscape:window-width="1290"
     inkscape:window-height="905"
     id="namedview118"
     showgrid="false"
     inkscape:zoom="4.9515934"
     inkscape:cx="48.857002"
     inkscape:cy="21.6107"
     inkscape:window-x="177"
     inkscape:window-y="35"
     inkscape:window-maximized="0"
     inkscape:current-layer="svg2" /><g
     id="Layer_2"
     display="none" /><path
     inkscape:connector-curvature="0"
     style="fill:url(#linearGradient3175);fill-opacity:1.0"
     id="path11"
     d="M 43,0.3 C 19.419,0.3 0.3,19.417 0.3,43 v 39.285 c 0,1.879 1.538,3.416 3.416,3.416 H 43 82.284 c 1.879,0 3.416,-1.537 3.416,-3.416 V 43 C 85.7,19.417 66.583,0.3 43,0.3 z" /><g
     id="g4222"
     transform="matrix(0.73144651,0,0,0.72436686,11.158127,0.93096394)"><path
       id="path3139"
       d="m 44.046343,72.455301 c -11.407161,0 -20.785636,1.712708 -21.88695,3.90688 h -0.108498 l 1.259785,7.324609 0.885184,0.34529 3.648177,25.66948 c -0.07544,0.12714 -0.236696,3.0808 -0.236696,3.21197 0,1.82207 7.483656,3.29914 16.715768,3.29914 9.231825,0 16.715768,-1.47707 16.715768,-3.29914 0,-0.22776 -0.290128,-2.88091 -0.512794,-3.09569 l 3.084259,-25.17936 1.047882,-0.593619 1.241526,-7.743704 0.03095,0.06141 C 64.829384,74.171468 55.452832,72.457992 44.046631,72.457992 z"
       style="fill:url(#linearGradient4220)"
       inkscape:connector-curvature="0" /><path
       id="path3151"
       d="m 65.866119,76.5786 c 0,2.359659 -9.692147,4.272448 -21.647179,4.272448 -11.955032,0 -21.647179,-1.912789 -21.647179,-4.272448 0,-2.359562 9.692147,-4.272448 21.647179,-4.272448 11.955032,0 21.647179,1.912886 21.647179,4.272448 z"
       inkscape:connector-curvature="0"
       style="opacity:0.4;fill:#5c3566" /><path
       id="path3153"
       d="m 61.872075,77.288445 c 0,1.624715 -7.826159,2.94181 -17.479673,2.94181 -9.653515,0 -17.479673,-1.317095 -17.479673,-2.94181 0,-1.624633 7.826158,-2.941726 17.479673,-2.941726 9.653514,0 17.479673,1.317093 17.479673,2.941726 z"
       style="opacity:0.4;fill:url(#linearGradient4216)"
       inkscape:connector-curvature="0" /><path
       id="path3953"
       d="m 42.423201,116.13887 c -7.243115,-0.1922 -13.039914,-1.27814 -14.303639,-2.6716 l -0.30733,-0.34011 0.05843,-1.09285 c 0.0321,-0.60111 0.08217,-1.42816 0.111285,-1.83793 l 0.05286,-0.74507 0.487231,0.32127 c 0.976096,0.64368 2.594048,1.1286 5.175507,1.55106 3.4061,0.55748 5.943737,0.72681 11.053511,0.73758 l 10.446154,-0.5989 -2.888597,4.27831 c -3.268003,0.4163 -6.593666,0.41467 -9.884926,0.3991 z"
       style="opacity:0.3;fill:url(#linearGradient4213)"
       inkscape:connector-curvature="0" /><path
       id="path3963"
       d="M 45.810753,93.19 25.03665,89.68905 24.460045,84.01334 c 1.506283,0.94304 3.982128,1.6218 7.919953,2.1713 5.195592,0.72499 9.05769,0.89124 16.82244,0.72422 l 14.377636,-2.1443 -2.762417,7.46405 c -4.950823,0.74978 -10.00409,0.86673 -15.007096,0.9611 h 0 z"
       style="opacity:0.3;fill:url(#linearGradient4210)"
       inkscape:connector-curvature="0" /><path
       id="path3971"
       d="m 43.894504,76.909862 c -0.06227,0.02704 0.0493,0.01286 0,0 z M 43.00192,77.65482 c -0.338659,0.07842 -0.512698,-0.542227 -0.864811,-0.617944 -0.845399,-0.181918 -1.889437,-0.04426 -2.71821,0.05286 -1.131299,0.111363 -2.330156,0.0025 -3.407157,0.348265 -1.108811,0.562057 -2.427986,0.519036 -3.664322,0.679484 -1.055379,0.243867 -2.87399,0.414557 -3.458283,0.732994 3.756195,1.043645 7.738707,1.284399 11.660868,1.462381 5.594987,0.164628 11.24773,0.03851 16.747481,-0.924087 0.512121,-0.12726 2.192443,-0.38514 1.904813,-0.533705 -1.100354,-0.01721 -2.187926,-0.246572 -3.037457,-0.864433 -0.952454,-0.595327 -1.722029,0.564188 -2.674004,0.446105 -0.867501,-0.205598 -1.204238,-1.423786 -2.324293,-0.997101 -0.904404,0.361867 -1.881749,0.324337 -2.713982,-0.136929 -0.812147,0.09997 -1.652452,0.317535 -2.504194,0.238786 -0.475314,-0.0025 -1.143887,-0.732501 -1.578935,-0.640478 -0.549408,0.116198 -0.855682,1.037335 -1.367418,0.753808 z m 0.925162,-0.71259 -0.0029,0.01394 0.0029,-0.01394 z m -0.520962,0.05785 0.0029,0.0049 -0.0029,-0.0049 z m 0.02989,0.0093 -0.0058,0.0049 0.0058,-0.0049 z m -1.937199,0.03933 0.34183,-0.03007 -0.34183,0.03007 z m 2.615478,-0.03704 -0.01086,0.0025 0.01086,-0.0025 z m -0.339139,0.04859 0.0077,0.0049 -0.0077,-0.0049 z m -0.36355,0.01623 h 0.01893 -0.01893 z m 0.249574,0 -0.0058,0.0091 0.0058,-0.0091 z m 4.989456,0.01843 h 0.02441 -0.02441 z m -5.008388,0.0092 0.01624,0.0025 -0.01624,-0.0025 z m 0.06785,0.0092 c -0.09918,0.07702 0.161354,0.01442 0,0 z m -11.1967,0.559845 c 0.303678,0.428079 0.320207,0.451433 0,0 z m -0.841074,0.532067 0.0077,0.0025 -0.0077,-0.0025 z m -0.103116,0.03246 v 0.01614 -0.01614 z m -0.105807,0.02778 v 0.0065 -0.0065 z"
       style="fill:url(#linearGradient4207)"
       inkscape:connector-curvature="0" /><path
       id="path4140"
       d="m 41.247889,5.9116321 c -0.149245,0 -0.29897,0.0024 -0.447446,0.0074 -5.250946,0.19765 -10.793077,3.621458 -12.904411,7.7258139 -7.825197,15.212185 7.467799,32.79175 7.688062,49.402729 0.07034,5.308285 -5.059033,11.636944 -4.0543,16.396284 3.194198,0.584346 7.773015,0.950065 12.862127,0.950065 5.579419,0 10.544177,-0.441599 13.745293,-1.126738 C 59.307722,74.490449 55.323,68.064522 55.076982,62.811876 54.284054,45.881313 63.363943,26.543219 53.154966,12.006256 50.788004,8.6348951 45.87245,5.9154011 41.248081,5.9112221 z"
       style="fill:url(#linearGradient4204)"
       inkscape:connector-curvature="0" /><path
       id="path3360"
       d="m 40.7818,6.4929461 c -0.06323,0.0017 -0.1257,0.0049 -0.189223,0.0074 -4.492615,0.197652 -9.239224,3.6239989 -11.045822,7.7283549 -6.695052,15.212185 6.39147,32.789291 6.579923,49.399451 0.05853,5.158737 -4.084186,11.282125 -3.528724,15.992297 0.437835,0.06744 0.895467,0.134882 1.372415,0.194618 -0.695577,-4.734591 3.561014,-10.956805 3.50172,-16.186506 -0.188357,-16.61016 -13.274399,-34.188085 -6.580019,-49.40027 1.765371,-4.008892 6.335923,-7.3695199 10.733495,-7.7077039 -0.218341,-0.01712 -0.437451,-0.02795 -0.654639,-0.02819 -0.06381,0 -0.125988,-0.0017 -0.189222,0 z"
       style="fill:url(#linearGradient4201)"
       inkscape:connector-curvature="0" /><path
       id="path3880"
       transform="matrix(-0.09610077,0,0,0.0824343,80.355136,7.7333768)"
       d="m 226.03,871.83 77.782,7.0711 c 0,0 35.355,-226.27 -8.4853,-254.56 2.8284,60.811 -56.569,148.49 -69.296,247.49 z"
       style="fill:url(#linearGradient3882);filter:url(#filter3870)"
       inkscape:connector-curvature="0" /><path
       id="path4145"
       d="m 43.520672,6.4929461 c -0.05526,0.0017 -0.110132,0.0049 -0.165197,0.0074 -0.128295,0.0065 -0.255725,0.01729 -0.384404,0.03073 2.795572,0.770032 5.473324,3.079475 6.901189,5.8206019 7.572356,14.536964 0.838383,33.875057 1.42652,50.80562 0.187012,5.382773 3.285973,11.996681 2.198305,16.806007 0.475218,-0.04892 0.937655,-0.100136 1.381448,-0.156187 C 55.865392,75.011492 52.829185,68.481577 52.644191,63.15682 52.056054,46.226258 58.790027,26.888164 51.217671,12.351202 49.789805,9.6100751 47.111958,7.3006321 44.316482,6.5305981 c 0.01105,-8.19e-4 0.02201,-0.0017 0.03306,-0.0024 -0.276866,-0.02761 -0.554117,-0.04261 -0.828869,-0.03581 z"
       style="fill:url(#linearGradient4197)"
       inkscape:connector-curvature="0" /><path
       id="path4166"
       d="m 41.193111,6.6568351 c -0.03546,0.0017 -0.06948,0.0049 -0.105134,0.0074 -2.520819,0.197651 -5.184925,3.6239969 -6.1985,7.7283539 -3.756675,15.212186 3.585136,32.789291 3.690846,49.39945 0.03354,5.270346 -2.390218,11.548446 -1.951998,16.297132 0.379405,0.03171 0.764769,0.0599 1.159167,0.08703 -0.476179,-4.758111 1.979772,-11.081362 1.946041,-16.383994 -0.105711,-16.610159 -7.446849,-34.188084 -3.69027,-49.400269 0.964083,-3.903839 3.419362,-7.1948949 5.826109,-7.6772209 -0.189607,-0.03876 -0.379213,-0.05851 -0.567571,-0.05884 -0.03585,0 -0.07265,-8.2e-4 -0.108113,0 z"
       style="fill:url(#linearGradient4194)"
       inkscape:connector-curvature="0" /><path
       id="path4155"
       d="m 42.428006,6.4929461 c -0.02239,0.0017 -0.0467,0.0049 -0.0691,0.0074 -0.05209,0.0065 -0.103885,0.01729 -0.156164,0.03073 1.135046,0.770032 2.222234,3.079475 2.801914,5.8206019 3.074456,14.536964 0.340869,33.875057 0.579584,50.80562 0.07813,5.536993 1.409702,12.377724 0.852894,17.215729 0.370276,-0.0074 0.73642,-0.01712 1.099201,-0.02819 C 48.017895,75.523836 46.7362,68.83077 46.659415,63.39211 46.420701,46.461547 49.154287,27.123454 46.079831,12.586491 45.355428,9.1611281 43.840303,6.4064801 42.428006,6.4918651 z"
       style="fill:url(#linearGradient4191)"
       inkscape:connector-curvature="0" /><g
       transform="matrix(0.09610077,0,0,0.08194455,10.651325,7.3610661)"
       id="g4398"
       style="fill-rule:evenodd"><path
         id="path4299"
         d="m 301.81,-6.5035 c 0,0 -26.969,10.574 -39.136,18.271 -8.8332,5.5878 -16.66,12.709 -24.158,19.991 -6.8293,6.6317 -12.335,14.513 -18.845,21.458 0,3e-6 -1e-5,6e-6 -1e-5,10e-6 -12.316,18.672 -20.706,40.333 -24.939,62.296 v 3e-5 c -1.5397,22.377 -8.341,44.242 -9.2164,66.654 -0.87521,22.408 3.9887,67.156 3.9887,67.156 0,0 10.408,43.852 12.5,66.217 v 1e-5 c 1.0084,9.0259 3.8588,17.752 6.0131,26.574 2.3793,9.7445 6.35,19.16 7.6326,29.108 v 2e-5 c 1.1035,8.0502 6.5595,23.477 6.5595,23.477 l 1e-5,2e-5 c 0,0 1.6924,4.6414 2.0349,7.0695 v 3e-5 c 0.0941,0.65976 0.46469,1.2599 0.55876,1.9196 v 2e-5 c 0,10e-6 1e-5,10e-6 1e-5,2e-5 0.0635,0.16166 0.0974,0.3334 0.14627,0.50006 0.0125,0.0427 0.0376,0.1281 0.0376,0.1281 0,0 0.007,0.0217 0.01,0.0327 0.001,0.004 0.002,0.008 0.003,0.0115 v 1e-5 -1e-5 c -5e-4,-0.004 -0.002,-0.008 -0.003,-0.0115 -0.003,-0.011 -0.006,-0.0219 -0.009,-0.0329 -0.0117,-0.0429 -0.0231,-0.0859 -0.0347,-0.1289 -0.0451,-0.16771 -0.0735,-0.34081 -0.1352,-0.50316 0,-10e-6 -1e-5,-10e-6 -1e-5,-2e-5 -0.23627,-0.62313 -0.42949,-1.2707 -0.51627,-1.9315 v -2e-5 c -0.31568,-2.4316 -1.0124,-4.8182 -1.8783,-7.1122 0,-1e-5 -1e-5,-1e-5 -1e-5,-2e-5 -2.839,-7.6113 -4.0888,-15.725 -6.0386,-23.611 -2.4056,-9.7294 -4.8208,-19.459 -6.9829,-29.245 -1.9521,-8.8357 -3.7639,-17.704 -5.4064,-26.603 -4.0701,-22.051 -8.757,-44.052 -11.019,-66.361 -2.2302,-21.991 -3.8354,-44.202 -2.4916,-66.266 1.3442,-22.071 8.7601,-43.454 10.519,-65.496 v -1e-5 c 4.3076,-21.137 15.853,-40.173 25.325,-59.554 0,-6e-6 1e-5,-1.2e-5 1e-5,-1.8e-5 5.1638,-7.1422 11.288,-13.638 17.923,-19.438 0,-3e-6 1e-5,-5e-6 1e-5,-7e-6 8.0947,-6.0281 15.573,-12.863 23.742,-18.79 9.654,-7.0042 19.879,-13.19 29.815,-19.783 l 3.9999,-6.0001 z"
         inkscape:connector-curvature="0"
         style="opacity:0.4;fill:#ffffff" /><path
         id="path4304"
         d="m 321.89,-4.9222 c -14.14,-4.6724 -34.723,22.27 -45.504,39.119 -13.214,20.653 -15.956,46.583 -20.162,70.739 -4.6132,26.491 -5.4459,53.598 -5.4138,80.487 0.0545,45.626 5.2673,91.119 9.5124,136.55 l 1.2069,-0.0974 c -3.0849,-45.405 -5.0363,-90.898 -6.0439,-136.4 v -1e-5 c 1.2203,-26.524 6.0938,-52.795 7.3142,-79.319 v -2e-5 c 3.5139,-23.399 9.2737,-47.218 20.85,-67.854 9.4115,-16.778 25.52,-29.806 38.241,-43.225 z"
         inkscape:connector-curvature="0"
         style="opacity:0.45;fill:#ffffff" /><path
         id="path4309"
         d="m 344.85,-4.5385 c 13.369,-6.5599 37.44,17.319 50.42,32.538 15.911,18.655 22.169,43.967 29.636,67.322 8.1883,25.613 12.716,52.351 16.357,78.993 6.1779,45.206 7.2277,90.984 9.2272,136.57 l -3.2089,0.0684 c -3.1458,-45.401 0.37817,-94.662 -10.643,-135.94 l -1e-5,-1e-5 c -4.8317,-26.108 -13.248,-51.468 -18.08,-77.577 v -2e-5 c -6.68,-22.702 -15.64,-45.51 -29.92,-64.372 -11.62,-15.336 -29.36,-26.041 -43.79,-37.597 l 10e-6,1.98e-5 z"
         inkscape:connector-curvature="0"
         style="opacity:0.6;fill:#ffffff" /><path
         id="path4313"
         d="m 326.71,-4.0653 c 7.0521,11.23 13.397,27.226 17.196,41.809 10.154,33.233 12.994,45.344 15.92,85.957 1.8754,25.033 5.0128,48.787 7.0576,73.807 v 2e-5 c 0.66061,22.656 3.489,45.22 3.962,67.88 0.4519,21.652 4.499,43.602 0.92385,64.96 -0.93677,5.5963 -5.1809,10.671 -5.7718,16.014 0.74244,-5.3239 5.2185,-10.357 6.2282,-15.986 3.8282,-21.342 1.4577,-42.863 0.92385,-65.04 -0.54671,-22.709 -1.7083,-47.328 -2.038,-68.12 -0.0106,-0.66658 0,-1e-5 0,-1e-5 -0.82419,-24.772 -3.9512,-49.07 -4.9424,-74.193 0.7399,-16.748 -3.0811,-34.365 -4.2921,-51.11 -1.5559,-12.641 -4.6214,-25.292 -9.788,-36.933 -6.2973,-14.188 -7.9986,-49.475 -25.379,-39.046 h 3e-5 z"
         inkscape:connector-curvature="0"
         style="opacity:0.5;fill:#ffffff" /><path
         id="path4366"
         d="m 190.42,335.78 2.8888,-14.108 -20.021,-2.7262 c -20.021,-2.7262 -40.041,-5.4524 -60.062,-8.1786 -7.9676,-0.47463 -15.829,-1.4658 -23.585,-2.9736 1.1408,0.31404 2.2974,0.55088 3.4699,0.71053 -1.1408,-0.31404 -2.2974,-0.55088 -3.4699,-0.7105 7.7244,1.6622 15.343,3.8409 22.856,6.5361 19.481,5.3625 38.962,10.725 58.442,16.087 z"
         inkscape:connector-curvature="0"
         style="fill:#00892c" /><path
         id="path4374"
         d="m 194.37,125.94 2.9328,-14.099 -20.012,-2.7886 c -20.012,-2.7886 -40.024,-5.5772 -60.036,-8.3658 -7.966,-0.49946 -15.825,-1.5152 -23.576,-3.0471 1.1398,0.3176 2.2957,0.55804 3.4676,0.72135 -1.1398,-0.31759 -2.2957,-0.55804 -3.4676,-0.72132 7.7192,1.6862 15.331,3.8887 22.835,6.6073 19.464,5.4232 38.928,10.846 58.392,16.269 z"
         inkscape:connector-curvature="0"
         style="fill:#37a42c" /><path
         id="path4376"
         d="m 230.29,466.78 -0.2581,-14.398 -20.133,1.7066 c -20.133,1.7066 -40.266,3.4132 -60.4,5.1198 -7.8792,1.2748 -15.768,2.0224 -23.666,2.2428 1.1818,0.0576 2.3623,0.0365 3.5413,-0.0635 -1.1818,-0.0576 -2.3623,-0.0365 -3.5413,0.0635 7.901,-0.0628 15.811,0.40156 23.731,1.3931 20.181,0.98393 40.363,1.9679 60.544,2.9518 z"
         inkscape:connector-curvature="0"
         style="fill:#37a42c" /><path
         id="path4378"
         d="m 262.03,605.74 0.58482,-14.388 -20.199,0.5256 c -20.199,0.52563 -40.397,1.0513 -60.596,1.5769 -7.9403,0.81156 -15.859,1.0963 -23.757,0.85414 1.1764,0.12669 2.3561,0.17463 3.5389,0.14386 -1.1764,-0.12668 -2.3561,-0.17463 -3.5389,-0.14383 7.8911,0.3996 15.761,1.326 23.609,2.7793 20.089,2.1631 40.179,4.3263 60.268,6.4894 z"
         inkscape:connector-curvature="0"
         style="fill:#37a42c" /><path
         id="path4380"
         d="m 287.89,552.93 3.1655,-14.048 -19.963,-3.1191 c -19.963,-3.1191 -39.926,-6.2382 -59.89,-9.3574 -7.9567,-0.63112 -15.797,-1.7766 -23.522,-3.4365 1.1344,0.3364 2.2862,0.59592 3.4552,0.77859 -1.1344,-0.3364 -2.2862,-0.59592 -3.4552,-0.77857 7.6902,1.8136 15.265,4.1416 22.723,6.984 19.372,5.7443 38.743,11.489 58.115,17.233 z"
         inkscape:connector-curvature="0"
         style="fill:#37a42c" /><path
         id="path4382"
         d="m 254.04,412.36 4.7966,-13.578 -19.457,-5.4466 -58.372,-16.34 c -7.8271,-1.563 -15.479,-3.6232 -22.955,-6.1806 1.087,0.46756 2.2002,0.86081 3.3396,1.1798 -1.087,-0.46756 -2.2002,-0.86081 -3.3396,-1.1798 7.4234,2.706 14.671,5.9091 21.743,9.6094 l 55.683,23.952 z"
         inkscape:connector-curvature="0"
         style="fill:#00892c" /><path
         id="path4384"
         d="m 237.85,97.062 10.38,-9.981 -14.943,-13.6 c -14.95,-13.6 -29.89,-27.2 -44.84,-40.799 -6.2931,-4.9096 -12.206,-10.185 -17.739,-15.825 0.76149,0.90565 1.5798,1.7567 2.4549,2.5531 -0.76149,-0.90564 -1.5798,-1.7567 -2.4549,-2.5531 5.4193,5.7498 10.458,11.865 15.118,18.346 13.004,15.465 26.007,30.93 39.011,46.395 z"
         inkscape:connector-curvature="0"
         style="fill:#37a42c" /><path
         id="path4386"
         d="m 218.52,225.22 7.7285,-12.151 -17.733,-9.6846 -53.2,-29.054 c -7.2748,-3.2839 -14.267,-7.0128 -20.976,-11.186 0.9539,0.70011 1.9501,1.3337 2.9886,1.9009 -0.9539,-0.70011 -1.9501,-1.3337 -2.9886,-1.9009 6.6243,4.3067 12.966,9.0584 19.024,14.255 l 48.867,35.865 z"
         inkscape:connector-curvature="0"
         style="fill:#37a42c" /><path
         id="path4388"
         d="m 182.27,240.32 4.9492,-13.523 -19.395,-5.6653 -58.185,-16.996 c -7.809,-1.6511 -15.437,-3.7973 -22.883,-6.4387 1.0816,0.47976 2.1903,0.88552 3.3261,1.2173 -1.0816,-0.47976 -2.1903,-0.88553 -3.3261,-1.2173 7.3925,2.7894 14.604,6.0739 21.634,9.8536 l 55.41,24.577 z"
         inkscape:connector-curvature="0"
         style="fill:#37a42c" /><path
         id="path4390"
         d="m 305.18,164.36 3.6544,-13.578 -14.824,-5.4466 -44.472,-16.34 c -5.9632,-1.563 -11.793,-3.6232 -17.488,-6.1806 0.82811,0.46756 1.6762,0.86081 2.5443,1.1798 -0.82811,-0.46756 -1.6762,-0.86081 -2.5444,-1.1798 5.6556,2.706 11.177,5.9091 16.565,9.6094 l 42.423,23.952 z"
         inkscape:connector-curvature="0"
         style="fill:#00892c" /><path
         id="path4392"
         d="m 337.28,678.36 3.5592,-13.578 -14.438,-5.4466 c -14.438,-5.4466 -28.876,-10.893 -43.314,-16.34 -5.8079,-1.563 -11.486,-3.6232 -17.033,-6.1806 0.80654,0.46756 1.6326,0.86081 2.4781,1.1798 -0.80655,-0.46756 -1.6326,-0.86081 -2.4781,-1.1798 5.5083,2.706 10.886,5.9091 16.134,9.6094 13.773,7.984 27.546,15.968 41.318,23.952 z"
         inkscape:connector-curvature="0"
         style="fill:#00892c" /><path
         id="path4394"
         d="m 300.12,334.22 7.9422,-12.012 -17.559,-9.9968 c -17.559,-9.9968 -35.118,-19.994 -52.677,-29.99 -7.2156,-3.4121 -14.14,-7.2641 -20.774,-11.556 0.94136,0.71687 1.9262,1.368 2.9545,1.9535 -0.94136,-0.71688 -1.9262,-1.368 -2.9545,-1.9534 6.547,4.4232 12.803,9.2864 18.769,14.589 l 48.225,36.724 z"
         inkscape:connector-curvature="0"
         style="fill:#37a42c" /><path
         id="path4396"
         d="m 332.29,496.78 -0.15432,-14.398 -12.038,1.7066 c -12.038,1.7066 -24.076,3.4132 -36.114,5.1198 -4.7111,1.2748 -9.4279,2.0224 -14.15,2.2428 0.70665,0.0576 1.4124,0.0365 2.1174,-0.0635 -0.70664,-0.0576 -1.4124,-0.0365 -2.1174,0.0635 4.7241,-0.0628 9.4539,0.40156 14.189,1.3931 l 36.201,2.9518 z"
         inkscape:connector-curvature="0"
         style="fill:#37a42c" /><path
         id="path3874"
         d="m 273.87,696.56 1.67,-13.937 -15.047,-3.4222 c -15.047,-3.4222 -30.094,-6.8443 -45.14,-10.266 -5.967,-0.75454 -11.873,-2.0194 -17.718,-3.7946 0.86288,0.35293 1.7349,0.62959 2.6161,0.83 -0.86289,-0.35293 -1.7349,-0.62959 -2.6161,-0.82997 5.8265,1.9277 11.592,4.3657 17.296,7.3141 14.735,6.0266 29.47,12.053 44.204,18.08 z"
         inkscape:connector-curvature="0"
         style="fill:#00892c" /><path
         id="path3876"
         d="m 253.87,760.56 1.67,-12.163 -15.047,-2.9865 c -15.047,-2.9865 -30.094,-5.973 -45.14,-8.9595 -5.967,-0.65849 -11.873,-1.7623 -17.718,-3.3115 0.86288,0.308 1.7349,0.54944 2.6161,0.72434 -0.86289,-0.308 -1.7349,-0.54944 -2.6161,-0.72431 5.8265,1.6823 11.592,3.8099 17.296,6.3829 14.735,5.2593 29.47,10.519 44.204,15.778 z"
         inkscape:connector-curvature="0"
         style="fill:#00892c" /></g><g
       id="g4417"
       transform="matrix(-0.09610077,0,0,0.08194455,76.69658,12.113851)"
       style="fill-rule:evenodd"><path
         id="path4427"
         d="m 214.42,359.78 2.8888,-14.108 -20.021,-2.7262 c -20.021,-2.7262 -40.041,-5.4524 -60.062,-8.1786 -7.9676,-0.47463 -15.829,-1.4658 -23.585,-2.9736 1.1408,0.31404 2.2974,0.55088 3.4699,0.71053 -1.1408,-0.31404 -2.2974,-0.55088 -3.4699,-0.7105 7.7244,1.6622 15.343,3.8409 22.856,6.5361 19.481,5.3625 38.962,10.725 58.442,16.087 z"
         inkscape:connector-curvature="0"
         style="fill:#00892c" /><path
         id="path4429"
         d="m 200.37,125.94 2.9328,-14.099 -20.012,-2.7886 c -20.012,-2.7886 -40.024,-5.5772 -60.036,-8.3658 -7.966,-0.49946 -15.825,-1.5152 -23.576,-3.0471 1.1398,0.3176 2.2957,0.55804 3.4676,0.72135 -1.1398,-0.31759 -2.2957,-0.55804 -3.4676,-0.72132 7.7192,1.6862 15.331,3.8887 22.835,6.6073 19.464,5.4232 38.928,10.846 58.392,16.269 z"
         inkscape:connector-curvature="0"
         style="fill:#37a42c" /><path
         id="path4431"
         d="m 230.29,466.78 -0.2581,-14.398 -20.133,1.7066 c -20.133,1.7066 -40.266,3.4132 -60.4,5.1198 -7.8792,1.2748 -15.768,2.0224 -23.666,2.2428 1.1818,0.0576 2.3623,0.0365 3.5413,-0.0635 -1.1818,-0.0576 -2.3623,-0.0365 -3.5413,0.0635 7.901,-0.0628 15.811,0.40156 23.731,1.3931 20.181,0.98393 40.363,1.9679 60.544,2.9518 z"
         inkscape:connector-curvature="0"
         style="fill:#37a42c" /><path
         id="path4433"
         d="m 262.03,605.74 0.58482,-14.388 -20.199,0.5256 c -20.199,0.52563 -40.397,1.0513 -60.596,1.5769 -7.9403,0.81156 -15.859,1.0963 -23.757,0.85414 1.1764,0.12669 2.3561,0.17463 3.5389,0.14386 -1.1764,-0.12668 -2.3561,-0.17463 -3.5389,-0.14383 7.8911,0.3996 15.761,1.326 23.609,2.7793 20.089,2.1631 40.179,4.3263 60.268,6.4894 z"
         inkscape:connector-curvature="0"
         style="fill:#37a42c" /><path
         id="path4435"
         d="m 283.89,562.93 3.1655,-14.048 -19.963,-3.1191 c -19.963,-3.1191 -39.926,-6.2382 -59.89,-9.3574 -7.9567,-0.63112 -15.797,-1.7766 -23.522,-3.4365 1.1344,0.3364 2.2862,0.59592 3.4552,0.77859 -1.1344,-0.3364 -2.2862,-0.59592 -3.4552,-0.77857 7.6902,1.8136 15.265,4.1416 22.723,6.984 19.372,5.7443 38.743,11.489 58.115,17.233 z"
         inkscape:connector-curvature="0"
         style="fill:#37a42c" /><path
         id="path4437"
         d="m 284.04,430.36 4.7966,-13.578 -19.457,-5.4466 -58.372,-16.34 c -7.8271,-1.563 -15.479,-3.6232 -22.955,-6.1806 1.087,0.46756 2.2002,0.86081 3.3396,1.1798 -1.087,-0.46756 -2.2002,-0.86081 -3.3396,-1.1798 7.4234,2.706 14.671,5.9091 21.743,9.6094 l 55.683,23.952 z"
         inkscape:connector-curvature="0"
         style="fill:#00892c" /><path
         id="path4439"
         d="m 237.85,97.062 10.38,-9.981 -14.943,-13.6 c -14.95,-13.6 -29.89,-27.2 -44.84,-40.799 -6.2931,-4.9096 -12.206,-10.185 -17.739,-15.825 0.76149,0.90565 1.5798,1.7567 2.4549,2.5531 -0.76149,-0.90564 -1.5798,-1.7567 -2.4549,-2.5531 5.4193,5.7498 10.458,11.865 15.118,18.346 13.004,15.465 26.007,30.93 39.011,46.395 z"
         inkscape:connector-curvature="0"
         style="fill:#37a42c" /><path
         id="path4441"
         d="m 218.52,225.22 7.7285,-12.151 -17.733,-9.6846 -53.2,-29.054 c -7.2748,-3.2839 -14.267,-7.0128 -20.976,-11.186 0.9539,0.70011 1.9501,1.3337 2.9886,1.9009 -0.9539,-0.70011 -1.9501,-1.3337 -2.9886,-1.9009 6.6243,4.3067 12.966,9.0584 19.024,14.255 l 48.867,35.865 z"
         inkscape:connector-curvature="0"
         style="fill:#37a42c" /><path
         id="path4443"
         d="m 208.27,292.32 4.9492,-13.523 -19.395,-5.6653 -58.185,-16.996 c -7.809,-1.6511 -15.437,-3.7973 -22.883,-6.4387 1.0816,0.47976 2.1903,0.88552 3.3261,1.2173 -1.0816,-0.47976 -2.1903,-0.88553 -3.3261,-1.2173 7.3924,2.7894 14.604,6.0739 21.634,9.8536 l 55.41,24.577 z"
         inkscape:connector-curvature="0"
         style="fill:#37a42c" /><path
         id="path4445"
         d="m 313.18,178.36 3.6544,-13.578 -14.824,-5.4466 -44.472,-16.34 c -5.9632,-1.563 -11.793,-3.6232 -17.488,-6.1806 0.82811,0.46756 1.6762,0.86081 2.5443,1.1798 -0.82811,-0.46756 -1.6762,-0.86081 -2.5444,-1.1798 5.6556,2.706 11.177,5.9091 16.565,9.6094 l 42.423,23.952 z"
         inkscape:connector-curvature="0"
         style="fill:#00892c" /><path
         id="path4447"
         d="m 337.28,678.36 3.5592,-13.578 -14.438,-5.4466 c -14.438,-5.4466 -28.876,-10.893 -43.314,-16.34 -5.8079,-1.563 -11.486,-3.6232 -17.033,-6.1806 0.80654,0.46756 1.6326,0.86081 2.4781,1.1798 -0.80655,-0.46756 -1.6326,-0.86081 -2.4781,-1.1798 5.5083,2.706 10.886,5.9091 16.134,9.6094 13.773,7.984 27.546,15.968 41.318,23.952 z"
         inkscape:connector-curvature="0"
         style="fill:#00892c" /><path
         id="path4449"
         d="m 300.12,334.22 7.9422,-12.012 -17.559,-9.9968 c -17.559,-9.9968 -35.118,-19.994 -52.677,-29.99 -7.2156,-3.4121 -14.14,-7.2641 -20.774,-11.556 0.94136,0.71687 1.9262,1.368 2.9545,1.9535 -0.94136,-0.71688 -1.9262,-1.368 -2.9545,-1.9534 6.547,4.4232 12.803,9.2864 18.769,14.589 l 48.225,36.724 z"
         inkscape:connector-curvature="0"
         style="fill:#37a42c" /><path
         id="path4451"
         d="m 332.29,496.78 -0.15432,-14.398 -12.038,1.7066 c -12.038,1.7066 -24.076,3.4132 -36.114,5.1198 -4.7111,1.2748 -9.4279,2.0224 -14.15,2.2428 0.70665,0.0576 1.4124,0.0365 2.1174,-0.0635 -0.70664,-0.0576 -1.4124,-0.0365 -2.1174,0.0635 4.7241,-0.0628 9.4539,0.40156 14.189,1.3931 l 36.201,2.9518 z"
         inkscape:connector-curvature="0"
         style="fill:#37a42c" /><path
         id="path4455"
         d="m 300.46,8.374 11.576,-8.5653 -13.073,-15.406 c -13.073,-15.406 -26.146,-30.813 -39.219,-46.219 -5.6104,-5.6771 -10.797,-11.668 -15.56,-17.972 0.63888,0.99594 1.3411,1.945 2.1067,2.8472 -0.63888,-0.99594 -1.3411,-1.945 -2.1067,-2.8472 4.636,6.3981 8.8482,13.11 12.636,20.135 10.91,17.007 21.82,34.014 32.73,51.021 z"
         inkscape:connector-curvature="0"
         style="fill:#37a42c" /></g><path
       transform="matrix(0.09610077,0,0,0.0796063,-8582.2027,-1062.3594)"
       id="path3898"
       d="m 89583.258,13604.964 c -34.884,172.39 95.149,365.15 97.219,548.25 0.732,64.779 -52.643,142.01 -42.188,200.09 19.555,4.196 24.135,7.455 51.812,9.438 -11.64,-60.3 45.33,-125.54 42.94,-184.71 -2.41,-59.62 -2.39,-112.42 -18,-170 -36.89,-136.09 -102.09,-265.93 -131.78,-403.07 z"
       style="opacity:0.26437001;fill:url(#linearGradient3315);filter:url(#filter3943)"
       inkscape:connector-curvature="0" /></g></svg>