<?xml version="1.0" encoding="UTF-8" standalone="no"?>
<!-- Created with Inkscape (http://www.inkscape.org/) -->

<svg
   xmlns:dc="http://purl.org/dc/elements/1.1/"
   xmlns:cc="http://creativecommons.org/ns#"
   xmlns:rdf="http://www.w3.org/1999/02/22-rdf-syntax-ns#"
   xmlns:svg="http://www.w3.org/2000/svg"
   xmlns="http://www.w3.org/2000/svg"
   xmlns:sodipodi="http://sodipodi.sourceforge.net/DTD/sodipodi-0.dtd"
   xmlns:inkscape="http://www.inkscape.org/namespaces/inkscape"
   width="64"
   height="64"
   id="svg2"
   version="1.1"
   inkscape:version="0.91 r13725"
   sodipodi:docname="bad-selected.svg"
   inkscape:export-filename="/home/mkiol/dev/Qt/kaktus/sailfish/images/z1.75/vm0.png"
   inkscape:export-xdpi="157.5"
   inkscape:export-ydpi="157.5">
  <defs
     id="defs4" />
  <sodipodi:namedview
     id="base"
     pagecolor="#ff00ff"
     bordercolor="#666666"
     borderopacity="1.0"
     inkscape:pageopacity="0"
     inkscape:pageshadow="2"
     inkscape:zoom="5.6"
     inkscape:cx="14.150793"
     inkscape:cy="31.760737"
     inkscape:document-units="px"
     inkscape:current-layer="layer1"
     showgrid="false"
     borderlayer="false"
     showguides="false"
     inkscape:guide-bbox="true"
     inkscape:snap-page="true"
     inkscape:window-width="1920"
     inkscape:window-height="1131"
     inkscape:window-x="0"
     inkscape:window-y="0"
     inkscape:window-maximized="1"
     inkscape:snap-bbox="true"
     inkscape:snap-to-guides="false"
     inkscape:object-paths="true">
    <sodipodi:guide
       orientation="1,0"
       position="56,0"
       id="guide3854" />
    <sodipodi:guide
       orientation="0,1"
       position="0,8"
       id="guide3858" />
    <sodipodi:guide
       orientation="0,1"
       position="0,56"
       id="guide3860" />
    <sodipodi:guide
       orientation="1,0"
       position="8,0"
       id="guide3862" />
  </sodipodi:namedview>
  <metadata
     id="metadata7">
    <rdf:RDF>
      <cc:Work
         rdf:about="">
        <dc:format>image/svg+xml</dc:format>
        <dc:type
           rdf:resource="http://purl.org/dc/dcmitype/StillImage" />
        <dc:title></dc:title>
      </cc:Work>
    </rdf:RDF>
  </metadata>
  <g
     inkscape:label="Layer 1"
     inkscape:groupmode="layer"
     id="layer1"
     transform="translate(0,-988.36218)"
     style="display:inline">
    <path
       style="display:inline;opacity:1;fill:#ffffff;fill-opacity:1;fill-rule:nonzero;stroke:none;stroke-width:2;stroke-linecap:square;stroke-linejoin:round;stroke-miterlimit:4;stroke-dasharray:none;stroke-dashoffset:8.54999828;stroke-opacity:1"
       d="M 32,7.3632812 C 18.393448,7.3631167 7.3631167,18.393448 7.3632812,32 7.3631166,45.606552 18.393448,56.636883 32,56.636719 45.606552,56.636884 56.636884,45.606552 56.636719,32 56.636883,18.393448 45.606552,7.3631166 32,7.3632812 Z M 20.535156,18.560547 c 3.05751,-7.58e-4 5.53665,2.434658 5.53711,5.439453 -4.6e-4,3.004795 -2.4796,5.440211 -5.53711,5.439453 C 17.478409,29.43915 15.00046,27.004045 15,24 c 4.6e-4,-3.004045 2.478409,-5.43915 5.535156,-5.439453 z m 22.41211,0 c 3.056747,3.03e-4 5.534696,2.435408 5.535156,5.439453 -4.6e-4,3.004045 -2.478409,5.43915 -5.535156,5.439453 -3.05751,7.58e-4 -5.53665,-2.434658 -5.53711,-5.439453 4.6e-4,-3.004795 2.4796,-5.440211 5.53711,-5.439453 z M 32,37.205078 c 6.764165,1.93e-4 12.805932,4.187518 15.119141,10.478516 -10.079427,-9.429611 -20.158855,-8.170639 -30.238282,0 C 19.194068,41.392596 25.235835,37.205271 32,37.205078 Z"
       transform="translate(0,988.36218)"
       id="path3382-5"
       inkscape:connector-curvature="0"
       sodipodi:nodetypes="ccccccccccccccccccc" />
  </g>
</svg>
