<?xml version="1.0" encoding="UTF-8" standalone="no"?>
<!-- Created with Inkscape (http://www.inkscape.org/) -->

<svg
   xmlns:dc="http://purl.org/dc/elements/1.1/"
   xmlns:cc="http://creativecommons.org/ns#"
   xmlns:rdf="http://www.w3.org/1999/02/22-rdf-syntax-ns#"
   xmlns:svg="http://www.w3.org/2000/svg"
   xmlns="http://www.w3.org/2000/svg"
   xmlns:sodipodi="http://sodipodi.sourceforge.net/DTD/sodipodi-0.dtd"
   xmlns:inkscape="http://www.inkscape.org/namespaces/inkscape"
   width="64"
   height="64"
   id="svg2"
   version="1.1"
   inkscape:version="0.92.0 r"
   sodipodi:docname="pocket.svg"
   inkscape:export-filename="/home/mkiol/dev/Qt/kaktus/sailfish/images/z1.75/vm0.png"
   inkscape:export-xdpi="157.5"
   inkscape:export-ydpi="157.5">
  <defs
     id="defs4" />
  <sodipodi:namedview
     id="base"
     pagecolor="#ff00ff"
     bordercolor="#666666"
     borderopacity="1.0"
     inkscape:pageopacity="0"
     inkscape:pageshadow="2"
     inkscape:zoom="11.2"
     inkscape:cx="39.903444"
     inkscape:cy="21.025104"
     inkscape:document-units="px"
     inkscape:current-layer="g4522"
     showgrid="false"
     borderlayer="false"
     showguides="true"
     inkscape:guide-bbox="true"
     inkscape:snap-page="true"
     inkscape:window-width="1920"
     inkscape:window-height="1131"
     inkscape:window-x="0"
     inkscape:window-y="0"
     inkscape:window-maximized="1"
     inkscape:snap-bbox="true"
     inkscape:snap-to-guides="false"
     inkscape:object-paths="true">
    <sodipodi:guide
       orientation="1,0"
       position="56,0"
       id="guide3854"
       inkscape:locked="false" />
    <sodipodi:guide
       orientation="0,1"
       position="0,8"
       id="guide3858"
       inkscape:locked="false" />
    <sodipodi:guide
       orientation="0,1"
       position="0,56"
       id="guide3860"
       inkscape:locked="false" />
    <sodipodi:guide
       orientation="1,0"
       position="8,0"
       id="guide3862"
       inkscape:locked="false" />
  </sodipodi:namedview>
  <metadata
     id="metadata7">
    <rdf:RDF>
      <cc:Work
         rdf:about="">
        <dc:format>image/svg+xml</dc:format>
        <dc:type
           rdf:resource="http://purl.org/dc/dcmitype/StillImage" />
        <dc:title />
      </cc:Work>
    </rdf:RDF>
  </metadata>
  <g
     inkscape:label="Layer 1"
     inkscape:groupmode="layer"
     id="layer1"
     transform="translate(0,-988.36218)"
     style="display:inline">
    <g
       id="g4522"
       transform="matrix(2.1928373,0,0,2.204884,-152.82486,-1241.3087)"
       style="stroke-width:0.45478269">
      <path
         style="fill:none;stroke:#ffffff;stroke-width:0.90956537;stroke-linecap:round;stroke-linejoin:bevel;stroke-miterlimit:4;stroke-dasharray:none"
         id="path4518"
         d="m 94.186714,1017.959 c -0.259,-0.72 -0.945,-1.204 -1.705,-1.204 h -0.01 -1.721 -14.651 c -0.747,0 -1.429,0.474 -1.695,1.179 -0.079,0.209 -0.119,0.427 -0.119,0.649 v 6.082 l 0.069,1.21 c 0.29,2.751 1.707,5.155 3.899,6.832 0.039,0.03 0.079,0.06 0.119,0.089 l 0.025,0.018 c 1.175,0.866 2.491,1.452 3.91,1.741 0.655,0.132 1.325,0.2 1.991,0.2 0.615,0 1.232,-0.057 1.839,-0.171 0.073,-0.014 0.145,-0.028 0.219,-0.044 0.02,0 0.042,-0.012 0.064,-0.023 1.359,-0.299 2.621,-0.87 3.753,-1.704 l 0.025,-0.018 c 0.04,-0.029 0.08,-0.059 0.119,-0.089 2.192,-1.677 3.609,-4.08 3.898,-6.832 l 0.07,-1.209 v -6.082 c 0,-0.21 -0.025,-0.419 -0.099,-0.624 z"
         inkscape:connector-curvature="0" />
      <path
         style="fill:#ffffff;fill-opacity:0.74509804;stroke-width:0.45478269"
         id="pocket-mark-added"
         d="m 89.952714,1024.294 -4.704,4.547 c -0.266,0.256 -0.608,0.385 -0.949,0.385 -0.342,0 -0.684,-0.129 -0.949,-0.385 l -4.705,-4.547 c -0.547,-0.528 -0.565,-1.403 -0.04,-1.954 0.524,-0.551 1.392327,-0.5693 1.939,-0.041 l 3.756,3.63 3.755,-3.63 c 0.546603,-0.5284 1.415,-0.51 1.939,0.04 0.522,0.552 0.504,1.427 -0.042,1.955 z"
         inkscape:connector-curvature="0"
         sodipodi:nodetypes="ccscccscscc" />
    </g>
  </g>
</svg>
