<?xml version="1.0" encoding="UTF-8" standalone="no"?>
<!-- Created with Inkscape (http://www.inkscape.org/) -->

<svg
   xmlns:dc="http://purl.org/dc/elements/1.1/"
   xmlns:cc="http://creativecommons.org/ns#"
   xmlns:rdf="http://www.w3.org/1999/02/22-rdf-syntax-ns#"
   xmlns:svg="http://www.w3.org/2000/svg"
   xmlns="http://www.w3.org/2000/svg"
   xmlns:sodipodi="http://sodipodi.sourceforge.net/DTD/sodipodi-0.dtd"
   xmlns:inkscape="http://www.inkscape.org/namespaces/inkscape"
   width="64"
   height="64"
   id="svg2"
   version="1.1"
   inkscape:version="0.91 r13725"
   sodipodi:docname="read-selected.svg"
   inkscape:export-filename="/home/mkiol/dev/Qt/kaktus/sailfish/images/z1.75/vm0.png"
   inkscape:export-xdpi="157.5"
   inkscape:export-ydpi="157.5">
  <defs
     id="defs4" />
  <sodipodi:namedview
     id="base"
     pagecolor="#ff00ff"
     bordercolor="#666666"
     borderopacity="1.0"
     inkscape:pageopacity="0"
     inkscape:pageshadow="2"
     inkscape:zoom="5.6"
     inkscape:cx="9.4041748"
     inkscape:cy="18.988365"
     inkscape:document-units="px"
     inkscape:current-layer="layer1"
     showgrid="false"
     borderlayer="false"
     showguides="false"
     inkscape:guide-bbox="true"
     inkscape:snap-page="true"
     inkscape:window-width="1920"
     inkscape:window-height="1139"
     inkscape:window-x="0"
     inkscape:window-y="0"
     inkscape:window-maximized="1"
     inkscape:snap-bbox="true"
     inkscape:snap-to-guides="false"
     inkscape:object-paths="true">
    <sodipodi:guide
       orientation="1,0"
       position="56,0"
       id="guide3854" />
    <sodipodi:guide
       orientation="0,1"
       position="0,8"
       id="guide3858" />
    <sodipodi:guide
       orientation="0,1"
       position="0,56"
       id="guide3860" />
    <sodipodi:guide
       orientation="1,0"
       position="8,0"
       id="guide3862" />
  </sodipodi:namedview>
  <metadata
     id="metadata7">
    <rdf:RDF>
      <cc:Work
         rdf:about="">
        <dc:format>image/svg+xml</dc:format>
        <dc:type
           rdf:resource="http://purl.org/dc/dcmitype/StillImage" />
        <dc:title></dc:title>
      </cc:Work>
    </rdf:RDF>
  </metadata>
  <g
     inkscape:label="Layer 1"
     inkscape:groupmode="layer"
     id="layer1"
     transform="translate(0,-988.36218)"
     style="display:inline">
    <path
       style="display:inline;opacity:1;fill:#ffffff;fill-opacity:1;fill-rule:nonzero;stroke:none;stroke-width:1;stroke-linecap:square;stroke-linejoin:round;stroke-miterlimit:4;stroke-dasharray:none;stroke-dashoffset:8.54999828;stroke-opacity:1"
       d="m 32,995.86217 a 24.5,24.5 0 0 0 -24.5,24.50003 24.5,24.5 0 0 0 24.5,24.5 24.5,24.5 0 0 0 24.5,-24.5 A 24.5,24.5 0 0 0 32,995.86217 Z m 14.779006,14.91753 a 1.5639862,1.5639862 0 0 1 1.256358,2.5656 l -12.738697,15.7299 0.01629,-0.022 c 0,0 -0.580151,0.7483 -1.478307,1.4824 -0.898158,0.7342 -2.183673,1.5883 -3.864778,1.5883 -1.740865,10e-5 -3.070987,-0.9063 -4.00935,-1.684 -0.938364,-0.7776 -1.549576,-1.5659 -1.549576,-1.5659 a 1.5639862,1.5639862 0 0 1 -0.01425,-0.018 l -6.642203,-8.7863 a 1.5640501,1.5640501 0 0 1 2.494389,-1.8876 l 6.627951,8.768 c 0,0 0.41978,0.5368 1.079205,1.0833 0.659425,0.5465 1.494679,0.9632 2.013838,0.9631 0.501735,0 1.271132,-0.381 1.883519,-0.8817 0.612387,-0.5005 0.99572,-0.9855 0.99572,-0.9855 a 1.5639862,1.5639862 0 0 1 0.01629,-0.02 l 12.738697,-15.7299 a 1.5639862,1.5639862 0 0 1 1.174909,-0.5966 l 0,0 z"
       id="path3382"
       inkscape:connector-curvature="0" />
  </g>
</svg>
