<?xml version="1.0" encoding="UTF-8" standalone="no"?>
<!-- Created with Inkscape (http://www.inkscape.org/) -->

<svg
   xmlns:dc="http://purl.org/dc/elements/1.1/"
   xmlns:cc="http://creativecommons.org/ns#"
   xmlns:rdf="http://www.w3.org/1999/02/22-rdf-syntax-ns#"
   xmlns:svg="http://www.w3.org/2000/svg"
   xmlns="http://www.w3.org/2000/svg"
   xmlns:sodipodi="http://sodipodi.sourceforge.net/DTD/sodipodi-0.dtd"
   xmlns:inkscape="http://www.inkscape.org/namespaces/inkscape"
   width="64"
   height="64"
   id="svg2"
   version="1.1"
   inkscape:version="0.91 r13725"
   sodipodi:docname="vm4.svg"
   inkscape:export-filename="/home/mkiol/dev/Qt/kaktus/sailfish/images/z1.75/vm4.png"
   inkscape:export-xdpi="157.5"
   inkscape:export-ydpi="157.5">
  <defs
     id="defs4" />
  <sodipodi:namedview
     id="base"
     pagecolor="#ff00ff"
     bordercolor="#666666"
     borderopacity="1.0"
     inkscape:pageopacity="0"
     inkscape:pageshadow="2"
     inkscape:zoom="1.979899"
     inkscape:cx="0.57695231"
     inkscape:cy="35.422329"
     inkscape:document-units="px"
     inkscape:current-layer="layer1"
     showgrid="false"
     borderlayer="false"
     showguides="true"
     inkscape:guide-bbox="true"
     inkscape:snap-page="true"
     inkscape:window-width="1920"
     inkscape:window-height="1139"
     inkscape:window-x="0"
     inkscape:window-y="0"
     inkscape:window-maximized="1">
    <sodipodi:guide
       orientation="0,1"
       position="0,8"
       id="guide3858" />
    <sodipodi:guide
       orientation="0,1"
       position="0,56"
       id="guide3860" />
    <sodipodi:guide
       orientation="1,0"
       position="8,0"
       id="guide3862" />
    <sodipodi:guide
       orientation="1,0"
       position="56,0"
       id="guide3864" />
  </sodipodi:namedview>
  <metadata
     id="metadata7">
    <rdf:RDF>
      <cc:Work
         rdf:about="">
        <dc:format>image/svg+xml</dc:format>
        <dc:type
           rdf:resource="http://purl.org/dc/dcmitype/StillImage" />
        <dc:title />
      </cc:Work>
    </rdf:RDF>
  </metadata>
  <g
     inkscape:label="Layer 1"
     inkscape:groupmode="layer"
     id="layer1"
     transform="translate(0,-988.36218)">
    <path
       style="fill:#ffffff;fill-opacity:0.99465182;stroke:none"
       d="M 14.0625 8 C 10.698928 8 8 10.698929 8 14.0625 L 8 49.9375 C 8 53.301071 10.698928 56 14.0625 56 L 49.9375 56 C 53.301072 56 56 53.301071 56 49.9375 L 56 14.0625 C 56 10.698929 53.301072 8 49.9375 8 L 14.0625 8 z M 31.96875 16.46875 C 33.111666 16.498776 36.542008 25.830442 37.46875 26.5 C 38.357824 27.142343 47.969821 27.198302 48.28125 28.25 C 48.605874 29.346256 40.787908 35.505461 40.4375 36.59375 C 40.101334 37.637804 43.028987 46.785071 42.125 47.40625 C 41.182713 48.053747 32.924556 42.528208 31.78125 42.53125 C 30.684414 42.534168 22.870124 48.136538 22 47.46875 C 21.093011 46.772669 23.793694 37.211409 23.4375 36.125 C 23.095784 35.082749 15.352529 29.377645 15.71875 28.34375 C 16.100487 27.266051 26.014334 26.893229 26.9375 26.21875 C 27.823144 25.571685 30.872289 16.439944 31.96875 16.46875 z "
       transform="translate(0,988.36218)"
       id="rect3040" />
  </g>
</svg>
