<?xml version="1.0" encoding="UTF-8" standalone="no"?>
<!-- Created with Inkscape (http://www.inkscape.org/) -->

<svg
   xmlns:dc="http://purl.org/dc/elements/1.1/"
   xmlns:cc="http://creativecommons.org/ns#"
   xmlns:rdf="http://www.w3.org/1999/02/22-rdf-syntax-ns#"
   xmlns:svg="http://www.w3.org/2000/svg"
   xmlns="http://www.w3.org/2000/svg"
   xmlns:sodipodi="http://sodipodi.sourceforge.net/DTD/sodipodi-0.dtd"
   xmlns:inkscape="http://www.inkscape.org/namespaces/inkscape"
   width="64"
   height="64"
   id="svg2"
   version="1.1"
   inkscape:version="0.91 r13725"
   sodipodi:docname="vm5.svg"
   inkscape:export-filename="/home/mkiol/dev/Qt/kaktus/sailfish/images/z1.75/vm5.png"
   inkscape:export-xdpi="157.5"
   inkscape:export-ydpi="157.5">
  <defs
     id="defs4" />
  <sodipodi:namedview
     id="base"
     pagecolor="#ff00ff"
     bordercolor="#666666"
     borderopacity="1.0"
     inkscape:pageopacity="0"
     inkscape:pageshadow="2"
     inkscape:zoom="5.6"
     inkscape:cx="45.946184"
     inkscape:cy="22.020772"
     inkscape:document-units="px"
     inkscape:current-layer="layer1"
     showgrid="false"
     borderlayer="false"
     showguides="true"
     inkscape:guide-bbox="true"
     inkscape:snap-page="true"
     inkscape:window-width="1920"
     inkscape:window-height="1139"
     inkscape:window-x="0"
     inkscape:window-y="0"
     inkscape:window-maximized="1">
    <sodipodi:guide
       orientation="0,1"
       position="0,8"
       id="guide3858" />
    <sodipodi:guide
       orientation="0,1"
       position="25.357143,56.25"
       id="guide3860" />
    <sodipodi:guide
       orientation="1,0"
       position="8,0"
       id="guide3862" />
    <sodipodi:guide
       orientation="1,0"
       position="56,0"
       id="guide3864" />
  </sodipodi:namedview>
  <metadata
     id="metadata7">
    <rdf:RDF>
      <cc:Work
         rdf:about="">
        <dc:format>image/svg+xml</dc:format>
        <dc:type
           rdf:resource="http://purl.org/dc/dcmitype/StillImage" />
        <dc:title />
      </cc:Work>
    </rdf:RDF>
  </metadata>
  <g
     inkscape:label="Layer 1"
     inkscape:groupmode="layer"
     id="layer1"
     transform="translate(0,-988.36218)">
    <path
       style="fill:#ffffff;fill-opacity:0.99465182;stroke:none"
       d="M 14.0625 8 C 10.698928 8 8 10.698929 8 14.0625 L 8 49.9375 C 8 53.301071 10.698928 56 14.0625 56 L 49.9375 56 C 53.301072 56 56 53.301071 56 49.9375 L 56 14.0625 C 56 10.698929 53.301072 8 49.9375 8 L 14.0625 8 z M 32.71875 15.625 C 35.080323 15.637575 38.088459 15.981929 41.40625 17.125 C 48.041831 19.411143 51.375 24.21875 51.375 24.21875 C 51.217562 25.477546 50.209809 27.86214 48.65625 29.96875 C 47.102692 32.075359 45.04968 32.817886 43.59375 32.9375 C 42.137822 33.057114 37.4375 33.875 37.4375 33.875 C 36.776686 32.256666 35.113252 30.548469 33.71875 29.90625 C 32.324138 29.2641 30.595812 28.536347 28.40625 29.0625 C 26.216686 29.588652 24.927599 30.603891 23.78125 32.53125 C 22.634901 34.458609 21.279765 34.419558 20.1875 34.4375 C 19.095234 34.455441 16.340472 33.775671 14.90625 30.375 C 13.472028 26.974328 14.701531 24.499707 18.15625 21.15625 C 21.61097 17.812794 26.332716 16.543088 27.875 16.125 C 28.646142 15.915956 30.357177 15.612425 32.71875 15.625 z M 13.78125 27.625 C 13.78125 27.625 13.93997 30.688565 16.15625 33.1875 C 16.15625 33.1875 15.924295 33.778506 16.125 34 C 16.125 34 16.494591 34.0513 16.84375 33.78125 C 16.84375 33.78125 20.087039 36.329414 23.21875 34.09375 C 23.21875 34.09375 22.950614 35.210558 22.96875 36.21875 C 22.986887 37.226943 22.282952 37.943785 21.46875 38.375 C 20.654548 38.806215 19.096226 39.733907 17.125 38.90625 C 15.153775 38.078592 13.933046 36.730605 13.3125 35.8125 C 12.15253 34.096311 12.574556 30.82171 13.78125 27.625 z M 30.25 29.53125 C 30.710798 29.553843 31.229048 29.692768 31.90625 29.96875 C 31.90625 29.96875 31.100563 30.140583 30.03125 30.90625 C 30.03125 30.90625 29.974945 30.901039 29.875 30.96875 C 29.875 30.96875 29.811892 31.041302 29.78125 31.15625 C 29.78125 31.15625 28.664318 32.378742 29.4375 34 C 29.4375 34 29.021736 33.910265 28.625 33.75 C 28.155391 33.559479 27.899332 33.068034 27.75 32.78125 C 27.551591 32.400298 27.528647 31.658956 27.9375 30.875 C 28.346537 30.091554 28.638916 29.927118 29.03125 29.75 C 29.397963 29.584656 29.789202 29.508657 30.25 29.53125 z M 28.15625 29.8125 C 28.15625 29.8125 27.637818 30.304334 27.1875 31.34375 C 27.1875 31.34375 27.13737 31.374646 27.09375 31.46875 C 27.09375 31.46875 27.064657 31.556968 27.09375 31.65625 C 27.09375 31.65625 26.816037 33.031358 28.125 33.90625 C 28.125 33.90625 27.774261 34.165458 27.40625 34.21875 C 26.970281 34.281394 26.642862 33.974453 26.3125 33.75 C 26.00111 33.53838 25.643563 33.014732 25.59375 32.25 C 25.54423 31.485703 25.694219 31.241252 25.90625 30.9375 C 26.303232 30.369841 26.897698 29.990981 28.15625 29.8125 z M 32.21875 30.25 C 32.336432 30.246734 32.470121 30.240551 32.59375 30.25 C 33.517566 30.32073 34.335207 30.715382 35.40625 31.9375 C 35.40625 31.9375 34.470622 31.681044 32.96875 31.84375 C 32.96875 31.84375 32.919401 31.832097 32.78125 31.84375 C 32.78125 31.84375 32.687499 31.845627 32.59375 31.9375 C 32.59375 31.9375 30.790663 32.513759 30.6875 34.4375 C 30.6875 34.4375 30.314138 34.169241 30 33.8125 C 29.628235 33.389706 29.619563 32.752979 29.625 32.40625 C 29.632259 31.945523 30.031941 31.27326 30.875 30.75 C 31.507215 30.357965 31.865703 30.259797 32.21875 30.25 z M 25.28125 31.46875 C 25.28125 31.46875 25.09308 32.107447 25.21875 33.125 C 25.21875 33.125 25.209675 33.156668 25.21875 33.25 C 25.21875 33.25 25.240789 33.309908 25.3125 33.375 C 25.3125 33.375 25.74747 34.581401 27.25 34.6875 C 27.25 34.6875 27.06007 35.044599 26.78125 35.25 C 26.450223 35.493222 26.037125 35.404714 25.65625 35.375 C 25.29704 35.347116 24.751303 35.079317 24.34375 34.5 C 23.936086 33.921227 23.938842 33.676772 23.96875 33.34375 C 24.025272 32.721121 24.325291 32.168734 25.28125 31.46875 z M 34.3125 32.03125 C 34.980007 32.069237 35.447587 32.268047 35.8125 32.46875 C 36.721216 32.968923 37.494985 34.338122 37.65625 36.09375 C 37.65625 36.09375 36.783973 34.73534 35.1875 34.1875 C 35.1875 34.1875 35.15445 34.142841 35.03125 34.0625 C 35.03125 34.0625 34.875332 34.000329 34.75 34.09375 C 34.75 34.09375 32.677671 33.805645 31.75 35.59375 C 31.75 35.59375 31.479305 35.143929 31.3125 34.65625 C 31.115386 34.078503 31.377463 33.484779 31.53125 33.15625 C 31.735557 32.719927 32.481779 32.167351 33.5625 32.0625 C 33.832654 32.036423 34.089998 32.018588 34.3125 32.03125 z M 28.9375 34.15625 C 29.001696 34.148832 29.0625 34.15625 29.0625 34.15625 C 28.297555 34.824372 28.8125 35.3125 28.8125 35.3125 C 28.669251 35.340744 28.179864 35.29188 28.28125 34.71875 C 28.357099 34.288795 28.744911 34.178504 28.9375 34.15625 z M 23.78125 34.21875 C 24.977929 36.711217 26.8125 35.71875 26.8125 35.71875 C 26.647007 37.696499 24.687609 36.906177 24.6875 36.90625 C 23.174839 35.900106 23.78125 34.21875 23.78125 34.21875 z M 29.5625 34.34375 C 29.938314 34.25137 30.3125 34.5 30.3125 34.5 C 29.139465 34.688309 29.34375 35.46875 29.34375 35.46875 C 29.183991 35.407895 28.731491 35.067903 29.1875 34.5625 C 29.30151 34.435987 29.437229 34.374543 29.5625 34.34375 z M 34.15625 34.46875 C 34.598971 34.455196 35.14421 34.539245 35.6875 34.78125 C 36.774119 35.265551 37.269636 35.856804 37.59375 36.375 C 38.199111 37.34328 38.236414 39.081593 37.46875 40.84375 C 37.46875 40.84375 37.330334 39.072519 36.09375 37.6875 C 36.09375 37.6875 36.075591 37.61199 36 37.46875 C 36 37.46875 35.887667 37.353799 35.71875 37.375 C 35.71875 37.375 33.918254 35.982987 32.09375 37.1875 C 32.09375 37.1875 32.059368 36.617694 32.15625 36.0625 C 32.270964 35.404811 32.837007 34.980189 33.15625 34.75 C 33.368367 34.597048 33.713529 34.482304 34.15625 34.46875 z M 27.9375 34.53125 C 27.703816 35.383859 28.3125 35.5 28.3125 35.5 C 28.222084 35.589306 27.858101 35.77681 27.65625 35.3125 C 27.45378 34.847975 27.9375 34.53125 27.9375 34.53125 z M 30.40625 34.84375 C 31.203385 34.841409 31.34375 35.75 31.34375 35.75 C 30.258465 34.880564 29.75 35.6875 29.75 35.6875 C 29.677191 35.50104 29.609443 34.845401 30.40625 34.84375 z M 27.3125 35.375 C 27.538989 36.091112 28 35.90625 28 35.90625 C 27.976651 36.011831 27.795647 36.300641 27.4375 36.0625 C 27.078665 35.824508 27.3125 35.375 27.3125 35.375 z M 30.53125 35.8125 C 30.674623 35.804592 30.827609 35.830996 31.03125 35.9375 C 31.846138 36.3633 31.53125 37.375 31.53125 37.375 C 30.8903 35.904629 29.90625 36.4375 29.90625 36.4375 C 29.925572 36.265387 30.101131 35.836224 30.53125 35.8125 z M 12.875 36.15625 C 12.875 36.15625 14.50057 38.683077 17.46875 39.625 C 17.46875 39.625 17.545975 40.012248 17.8125 40.09375 C 17.8125 40.09375 18.13126 39.975936 18.28125 39.59375 C 18.28125 39.59375 21.940817 40.278882 23.375 37 C 23.375 37 23.84165 37.827058 24.21875 38.6875 C 24.487791 39.301362 24.420098 40.461821 24.1875 41.0625 C 23.877958 41.861692 22.910173 43.285105 20.9375 43.5625 C 18.964869 43.84019 17.341938 43.344635 16.40625 42.90625 C 14.6573 42.086895 13.439962 39.286183 12.875 36.15625 z M 27.9375 36.34375 C 27.978352 36.414968 28.041912 36.669635 27.71875 36.71875 C 27.39519 36.768449 27.28125 36.40625 27.28125 36.40625 C 27.774766 36.693066 27.9375 36.34375 27.9375 36.34375 z M 26.96875 36.65625 C 27.941942 38.229432 26.093641 38.593823 26.09375 38.59375 C 24.465391 38.605642 23.96875 37.09375 23.96875 37.09375 C 26.191934 38.361671 26.96875 36.65625 26.96875 36.65625 z M 30.40625 36.71875 C 30.62012 36.746145 30.845856 36.886887 31.0625 37.21875 C 31.640432 38.103567 30.75 38.90625 30.75 38.90625 C 30.933255 37.071712 29.65625 37.0625 29.65625 37.0625 C 29.752975 36.927634 30.0498 36.673092 30.40625 36.71875 z M 33.625 37.28125 C 34.20856 37.226074 35.285586 37.646538 36.0625 38.6875 C 36.839345 39.728826 36.979903 40.559846 37 41.21875 C 37.037863 42.449915 36.082913 44.085526 34.34375 45.3125 C 34.34375 45.3125 35.225039 43.587421 34.8125 41.625 C 34.8125 41.625 34.836123 41.549305 34.84375 41.375 C 34.84375 41.375 34.800514 41.196745 34.625 41.125 C 34.625 41.125 33.664632 38.835411 31.21875 38.96875 C 31.21875 38.96875 31.529603 38.434028 31.9375 37.96875 C 32.420479 37.41772 33.186343 37.322585 33.625 37.28125 z M 29.375 37.4375 C 29.749561 37.400712 30.276293 37.515801 30.34375 38.375 C 30.433911 39.520449 29.15625 39.84375 29.15625 39.84375 C 30.287521 38.188863 29.09375 37.5 29.09375 37.5 C 29.15877 37.468724 29.250146 37.449763 29.375 37.4375 z M 27.5625 37.53125 C 29.025363 38.415678 27.562498 39.343747 27.5625 39.34375 C 26.255406 40.089421 25.25 38.9375 25.25 38.9375 C 27.621423 39.130548 27.5625 37.53125 27.5625 37.53125 z M 28.5 37.625 C 28.842069 37.664787 29.867902 38.092345 29.21875 39.25 C 28.56978 40.407691 27.09375 39.90625 27.09375 39.90625 C 29.298104 39.010419 28.5 37.625 28.5 37.625 z M 24.875 39.3125 C 24.875 39.3125 25.621152 39.713203 26.3125 40.1875 C 26.805799 40.525776 27.304017 41.439373 27.40625 42 C 27.542637 42.746129 27.476222 44.252275 26.09375 45.375 C 24.71132 46.498017 23.203382 46.865927 22.28125 46.96875 C 20.557633 47.160963 18.3649 45.379663 16.46875 43.28125 C 16.46875 43.28125 18.753111 44.602241 21.46875 43.9375 C 21.46875 43.9375 21.820215 44.311919 22.0625 44.25 C 22.0625 44.25 22.251101 44.013967 22.1875 43.65625 C 22.1875 43.65625 25.308333 42.449206 24.875 39.3125 z M 31.09375 39.46875 C 31.537949 39.457235 32.095377 39.598524 32.40625 39.71875 C 32.957529 39.932151 34.035333 40.779562 34.21875 42.15625 C 34.402209 43.533235 34.088506 44.657081 33.78125 45.3125 C 33.207058 46.537008 31.261478 47.531587 29.09375 47.9375 C 29.09375 47.9375 30.71365 46.644631 31.3125 44.53125 C 31.3125 44.53125 31.40724 44.479883 31.5 44.3125 C 31.5 44.3125 31.528585 44.119518 31.40625 43.96875 C 31.40625 43.96875 31.668429 41.271303 29.40625 40.28125 C 29.40625 40.28125 30.090578 39.797709 30.6875 39.53125 C 30.794007 39.483733 30.945684 39.472588 31.09375 39.46875 z M 27.21875 40.5 C 27.21875 40.5 28.178616 40.459584 28.90625 40.5625 C 29.425449 40.635881 30.107267 41.380848 30.40625 41.78125 C 30.804011 42.313969 31.33516 43.766829 30.6875 45.1875 C 30.039984 46.608384 29.090211 47.465818 28.40625 47.90625 C 27.128039 48.729329 24.775754 48.439529 22.46875 47.53125 C 22.46875 47.53125 24.667371 47.342557 26.5 45.6875 C 26.5 45.6875 26.865144 45.830497 27.03125 45.6875 C 27.03125 45.6875 27.126814 45.443458 26.9375 45.1875 C 26.9375 45.1875 28.782154 42.79433 27.21875 40.5 z "
       transform="translate(0,988.36218)"
       id="rect3040" />
    <g
       id="g3257"
       transform="matrix(0.07348088,0.10871581,-0.10871581,0.07348088,37.191396,977.40694)">
      <title
         id="title3259">Layer 1</title>
    </g>
  </g>
</svg>
