<?xml version="1.0" encoding="UTF-8" standalone="no"?>
<!-- Created with Inkscape (http://www.inkscape.org/) -->

<svg
   xmlns:dc="http://purl.org/dc/elements/1.1/"
   xmlns:cc="http://creativecommons.org/ns#"
   xmlns:rdf="http://www.w3.org/1999/02/22-rdf-syntax-ns#"
   xmlns:svg="http://www.w3.org/2000/svg"
   xmlns="http://www.w3.org/2000/svg"
   xmlns:sodipodi="http://sodipodi.sourceforge.net/DTD/sodipodi-0.dtd"
   xmlns:inkscape="http://www.inkscape.org/namespaces/inkscape"
   width="64"
   height="64"
   id="svg2"
   version="1.1"
   inkscape:version="0.91 r13725"
   sodipodi:docname="vm6.svg"
   inkscape:export-filename="/home/mkiol/dev/Qt/kaktus/sailfish/images/z1.75/vm6.png"
   inkscape:export-xdpi="157.5"
   inkscape:export-ydpi="157.5">
  <defs
     id="defs4" />
  <sodipodi:namedview
     id="base"
     pagecolor="#ff00ff"
     bordercolor="#666666"
     borderopacity="1.0"
     inkscape:pageopacity="0"
     inkscape:pageshadow="2"
     inkscape:zoom="7.919596"
     inkscape:cx="-40.121516"
     inkscape:cy="27.607136"
     inkscape:document-units="px"
     inkscape:current-layer="layer1"
     showgrid="false"
     borderlayer="false"
     showguides="true"
     inkscape:guide-bbox="true"
     inkscape:snap-page="true"
     inkscape:window-width="1920"
     inkscape:window-height="1139"
     inkscape:window-x="0"
     inkscape:window-y="0"
     inkscape:window-maximized="1">
    <sodipodi:guide
       orientation="0,1"
       position="0,8"
       id="guide3858" />
    <sodipodi:guide
       orientation="0,1"
       position="0,56"
       id="guide3860" />
    <sodipodi:guide
       orientation="1,0"
       position="8,0"
       id="guide3862" />
    <sodipodi:guide
       orientation="1,0"
       position="56,0"
       id="guide3864" />
  </sodipodi:namedview>
  <metadata
     id="metadata7">
    <rdf:RDF>
      <cc:Work
         rdf:about="">
        <dc:format>image/svg+xml</dc:format>
        <dc:type
           rdf:resource="http://purl.org/dc/dcmitype/StillImage" />
        <dc:title />
      </cc:Work>
    </rdf:RDF>
  </metadata>
  <g
     inkscape:label="Layer 1"
     inkscape:groupmode="layer"
     id="layer1"
     transform="translate(0,-988.36218)">
    <path
       style="fill:#ffffff;fill-opacity:0.99465176;stroke:none"
       d="M 14.0625 8 C 10.698928 8 8 10.698929 8 14.0625 L 8 49.9375 C 8 53.301071 10.698928 56 14.0625 56 L 49.9375 56 C 53.301072 56 56 53.301071 56 49.9375 L 56 14.0625 C 56 10.698929 53.301072 8 49.9375 8 L 14.0625 8 z M 25.03125 18.34375 C 25.319927 18.34875 25.617251 18.37125 25.90625 18.40625 C 29.51144 18.84405 31.198532 20.8416 32 22.5625 C 32.801474 20.8416 34.488549 18.84405 38.09375 18.40625 C 47.34164 17.28315 56.967447 31.7096 32.0625 46.6875 C 32.03605 46.6395 31.96395 46.6395 31.9375 46.6875 C 7.8108343 32.1776 16.082356 18.18285 25.03125 18.34375 z "
       transform="translate(0,988.36218)"
       id="rect3040-1" />
  </g>
</svg>
